<?xml version="1.0" encoding="UTF-8" standalone="no"?> <svg xmlns:dc="http://purl.org/dc/elements/1.1/" xmlns:cc="http://creativecommons.org/ns#" xmlns:rdf="http://www.w3.org/1999/02/22-rdf-syntax-ns#" xmlns:svg="http://www.w3.org/2000/svg" xmlns="http://www.w3.org/2000/svg" xmlns:sodipodi="http://sodipodi.sourceforge.net/DTD/sodipodi-0.dtd" xmlns:inkscape="http://www.inkscape.org/namespaces/inkscape" width="14mm" height="9.1000004mm" viewBox="0 0 14 9.1000004" version="1.1" id="svg858" inkscape:version="1.0.2-2 (e86c870879, 2021-01-15)" sodipodi:docname="icon-ventus-trade-sprzedane.svg"><defs id="defs852"></defs><metadata id="metadata855"></metadata><g inkscape:label="Warstwa 1" inkscape:groupmode="layer" id="layer1"><path style="fill:#000000;stroke-width:0.0177845" d="m 1.5970897,9.0725386 c -0.128744,-0.04123 -0.182231,-0.119006 -0.700084,-1.017958 -0.489204,-0.84922 -0.502194,-0.874273 -0.509476,-0.982619 -0.0063,-0.09297 5.9e-5,-0.126555 0.03846,-0.205063 0.02527,-0.05164 0.06821,-0.114928 0.09544,-0.140651 0.02723,-0.02572 0.565703,-0.344575 1.196607,-0.7085618 0.630904,-0.363988 1.153545,-0.667667 1.161426,-0.674842 0.0079,-0.0072 1.59e-4,-0.104234 -0.01716,-0.215687 -0.04331,-0.278809 -0.04307,-0.869601 4.82e-4,-1.154109 0.139773,-0.913101 0.5201,-1.688572 1.142504,-2.329521 0.674353,-0.69444695 1.545669,-1.12798694 2.505654,-1.24673694 0.256847,-0.03177 0.774555,-0.02744 1.031498,0.0086 0.745025,0.104588 1.44563,0.397279 2.013487,0.84117094 0.146545,0.114553 0.175821,0.130755 0.208973,0.115649 0.02121,-0.0097 0.5262023,-0.299672 1.1222133,-0.64446894 0.596012,-0.344796 1.123673,-0.645669 1.17258,-0.668606 0.159179,-0.07465 0.349148,-0.049140004615 0.472232,0.06342 0.04932,0.04511 0.214314,0.31539 0.57009,0.93389394 0.483343,0.840278 0.50099,0.874281 0.509635,0.981981 0.0076,0.09515 0.0022,0.12547 -0.03729,0.206084 -0.02544,0.05199 -0.06852,0.115681 -0.09575,0.141544 -0.02723,0.02586 -0.565704,0.344822 -1.196607,0.708801 -0.630903,0.363977 -1.153545,0.667541 -1.161426,0.674585 -0.0079,0.007 -2.64e-4,0.103996 0.01693,0.215449 0.03838,0.248803 0.04308,0.833668 0.0087,1.082972 -0.136672,0.991111 -0.554393,1.8264428 -1.2495393,2.4987468 -0.659022,0.637368 -1.47523,1.02675 -2.40758,1.148567 -0.211849,0.02768 -0.757506,0.02755 -0.969253,-2.11e-4 -0.7835,-0.102778 -1.54689,-0.421154 -2.12175,-0.884889 -0.0733,-0.05913 -0.131478,-0.09359 -0.147586,-0.08741 -0.01462,0.0056 -0.520384,0.295627 -1.123913,0.644477 -0.60353,0.348851 -1.137341,0.652989 -1.186249,0.675862 -0.09678,0.04527 -0.237799,0.05328 -0.343255,0.01951 z m 0.311077,-0.101107 c 0.04099,-0.01861 1.10539,-0.62971 2.365332,-1.357999 1.259943,-0.72829 3.823364,-2.2098538 5.696492,-3.2923648 1.8731283,-1.082511 3.4275693,-1.989165 3.4543153,-2.014789 0.06887,-0.06598 0.109013,-0.181702 0.09878,-0.284755 -0.0071,-0.07129 -0.08778,-0.222146 -0.506487,-0.946825 -0.372303,-0.64436494 -0.514524,-0.87534894 -0.563248,-0.91478494 -0.08686,-0.0703 -0.235768,-0.08432 -0.351097,-0.03307 -0.04296,0.0191 -0.826401,0.467186 -1.740967,0.99575494 -0.9145663,0.528569 -3.4795293,2.010941 -5.6999193,3.294159 -2.220389,1.283218 -4.058938,2.3539388 -4.085663,2.3793788 -0.06891,0.06559 -0.109016,0.181317 -0.09858,0.284421 0.0072,0.07106 0.08842,0.223084 0.501406,0.938451 0.271053,0.46951 0.509151,0.871067 0.529105,0.892348 0.09054,0.09656 0.263143,0.122448 0.400535,0.06007 z m -0.220061,-0.236197 c -0.03113,-0.01001 -0.07798,-0.04051 -0.1041,-0.06777 -0.02612,-0.02726 -0.230731,-0.368001 -0.454693,-0.757197 -0.362658,-0.63022 -0.407203,-0.716215 -0.407203,-0.78611 0,-0.09536 0.0705,-0.234006 0.14959,-0.29421 0.03021,-0.023 2.163723,-1.2604888 4.741135,-2.7499838 2.577413,-1.489496 5.0727963,-2.931712 5.5452963,-3.20492294 0.931137,-0.538408 0.972343,-0.557156 1.12847,-0.513443 0.04471,0.01252 0.102806,0.04522 0.129108,0.07267 0.0263,0.02746 0.231062,0.368348 0.455024,0.75754394 0.362658,0.630219 0.407204,0.716215 0.407204,0.786109 0,0.09535 -0.07048,0.233985 -0.14959,0.29424 -0.03021,0.02301 -2.339789,1.362375 -5.1323943,2.976362 -2.792604,1.6139868 -5.281539,3.0528488 -5.530966,3.1974698 -0.542486,0.31454 -0.614635,0.341401 -0.776881,0.289238 z m 0.573161,-0.626475 c 0.02115,-0.05061 0.03742,-0.06329 0.09246,-0.07205 0.09012,-0.01434 0.217966,-0.04731 0.217966,-0.0562 0,-0.0039 -0.01271,-0.0266 -0.02823,-0.05029 -0.02231,-0.03406 -0.03867,-0.04099 -0.07807,-0.03311 -0.0804,0.01608 -0.237033,-0.04041 -0.352296,-0.127052 -0.198001,-0.14884 -0.215721,-0.08911 -0.05541,0.186799 0.139023,0.239273 0.16041,0.255232 0.203583,0.151906 z m 0.53218,-0.296857 c 0.09229,-0.109676 0.123984,-0.193094 0.124034,-0.326425 5.8e-5,-0.149528 -0.04277,-0.256521 -0.140759,-0.351691 -0.109213,-0.106066 -0.201308,-0.126438 -0.506028,-0.111933 -0.298548,0.01421 -0.34349,0.0042 -0.386786,-0.08665 -0.02775,-0.05819 -0.02764,-0.0663 0.0019,-0.131683 0.02482,-0.05505 0.02718,-0.07758 0.01125,-0.107346 -0.02949,-0.05509 -0.05159,-0.04746 -0.145936,0.05043 -0.1854,0.192349 -0.175435,0.480998 0.02317,0.671284 0.102278,0.09799 0.17668,0.119536 0.3884,0.112475 0.428228,-0.01429 0.425476,-0.01452 0.472851,0.04058 0.05382,0.0626 0.05606,0.150879 0.0055,0.215191 -0.03275,0.04163 -0.03472,0.05413 -0.01573,0.09996 l 0.0217,0.05238 0.0499,-0.03553 c 0.02745,-0.01954 0.07092,-0.06051 0.09661,-0.09105 z m 0.675229,-0.382709 c 0.292313,-0.16454 0.365714,-0.215469 0.365714,-0.253749 0,-0.02879 -0.0143,-0.03575 -0.08259,-0.04023 l -0.08259,-0.0054 -0.317926,-0.551318 c -0.174859,-0.303225 -0.323764,-0.5530938 -0.330899,-0.5552628 -0.0071,-0.0022 -0.113011,0.05441 -0.235279,0.125724 -0.188013,0.1096668 -0.222306,0.1363378 -0.222306,0.1728978 0,0.03741 0.0074,0.04266 0.05529,0.03906 0.0346,-0.0026 0.06517,0.0074 0.08169,0.02667 0.04744,0.05544 0.56564,0.97271 0.565001,1.000103 -3.17e-4,0.01467 -0.01182,0.04146 -0.02551,0.05953 -0.02935,0.03874 -0.01747,0.08275 0.02235,0.08275 0.01545,0 0.108628,-0.04534 0.207065,-0.100745 z m -0.942846,-0.585095 c 0.02523,-0.02523 0.02513,-0.03308 -0.0012,-0.08448 -0.07865,-0.153803 -0.188037,-0.329997 -0.210141,-0.338479 -0.02865,-0.01099 -0.05629,0.01756 -0.06561,0.06777 -0.004,0.02152 -0.02692,0.03987 -0.05971,0.04778 -0.236429,0.05701 -0.243217,0.06102 -0.205187,0.121142 0.01115,0.01763 0.04975,0.02649 0.119772,0.02749 0.117457,0.0017 0.241204,0.0544 0.319474,0.136095 0.05593,0.05837 0.06489,0.06036 0.102566,0.02268 z m 2.242244,-0.164359 c 0.230992,-0.134152 0.266767,-0.16087 0.266767,-0.199237 0,-0.04039 -0.0068,-0.04431 -0.07683,-0.04431 h -0.07683 l -0.31809,-0.5510558 c -0.17495,-0.303079 -0.325427,-0.5535 -0.334394,-0.556489 -0.01488,-0.005 -0.391191,0.206418 -0.443221,0.248962 -0.01223,0.01 -0.02223,0.03321 -0.02223,0.05157 0,0.02601 0.01315,0.03339 0.05949,0.03339 0.03448,0 0.07089,0.01308 0.0866,0.03112 0.04785,0.05494 0.565292,0.9665738 0.565292,0.9959398 0,0.01557 -0.01311,0.04279 -0.02913,0.0605 -0.02375,0.02624 -0.02499,0.03718 -0.0067,0.0592 0.01233,0.01485 0.03144,0.02663 0.04247,0.02617 0.01103,-4.76e-4 0.140098,-0.07056 0.28682,-0.155766 z m -1.027966,-0.07975 c 0.140475,-0.129485 0.186121,-0.270221 0.139574,-0.4303358 -0.08536,-0.293623 -0.346911,-0.406139 -0.635207,-0.273255 -0.06681,0.03079 -0.121209,0.06481 -0.120898,0.07559 0.0012,0.04139 0.04694,0.08004 0.08343,0.0705 0.06551,-0.01713 0.106221,0.02487 0.225608,0.2327958 0.118168,0.2058 0.143543,0.296432 0.09624,0.343734 -0.01612,0.01612 -0.01553,0.03117 0.0025,0.06494 0.02262,0.04227 0.02556,0.04291 0.07637,0.01663 0.02906,-0.01503 0.08861,-0.0603 0.132337,-0.100602 z m 1.659294,-0.252709 c 0.08957,-0.04632 0.155235,-0.127985 0.177489,-0.2207488 0.0264,-0.110029 0.01234,-0.161627 -0.04404,-0.161627 -0.03004,0 -0.04364,0.01141 -0.04771,0.04001 -0.01004,0.07068 -0.05538,0.04303 -0.123927,-0.07558 -0.03675,-0.06358 -0.08377,-0.129349 -0.104489,-0.146154 -0.05821,-0.0472 -0.146196,-0.05609 -0.25102,-0.02536 -0.05173,0.01516 -0.09776,0.02386 -0.102298,0.01933 -0.0046,-0.0045 0.01227,-0.03017 0.03733,-0.05697 0.136269,-0.145661 0.139424,-0.354484 0.0075,-0.499469 -0.109104,-0.119948 -0.274665,-0.13007 -0.488231,-0.02985 l -0.143884,0.06752 0.02572,0.04974 c 0.01991,0.03851 0.03782,0.0494 0.07928,0.04821 0.07244,-0.002 0.107288,0.03386 0.212617,0.21911 0.0959,0.168665 0.106816,0.216708 0.0608,0.267554 -0.02665,0.02944 -0.02669,0.03562 -6e-4,0.07547 0.01983,0.03026 0.03937,0.04055 0.06456,0.03396 0.05671,-0.01483 0.115562,0.03645 0.185616,0.161719 0.08247,0.1474758 0.146018,0.2226238 0.214265,0.2533888 0.06133,0.02764 0.1652,0.01891 0.240952,-0.02026 z m 0.547829,-0.3492638 c 0.104636,-0.06004 0.19235,-0.11083 0.194922,-0.112865 0.0025,-0.002 -0.03086,-0.332457 -0.0743,-0.73427 -0.05852,-0.541311 -0.08648,-0.742018 -0.10794,-0.774768 l -0.02896,-0.0442 -0.187167,0.107393 c -0.102941,0.05907 -0.190621,0.1164 -0.194845,0.127409 -0.0042,0.01101 0.02822,0.341258 0.07209,0.733886 0.06924,0.61966 0.09913,0.806578 0.128984,0.806578 0.0038,0 0.09259,-0.04913 0.197221,-0.109164 z m 0.514142,-0.297865 0.196316,-0.113586 -0.08796,-0.153182 c -0.150841,-0.262688 -0.192162,-0.276158 -0.192162,-0.06264 0,0.147793 -0.02576,0.226149 -0.09552,0.290477 -0.0329,0.03034 -0.04675,0.06107 -0.04675,0.103743 0,0.03334 0.0067,0.05796 0.01488,0.0547 0.0082,-0.0032 0.103225,-0.05704 0.211199,-0.119513 z m 0.585248,-0.338674 c 0.12592,-0.07345 0.210407,-0.13376 0.209124,-0.149267 -0.0019,-0.02303 -0.668618,-1.193536 -0.697748,-1.224987 -0.01215,-0.01312 -0.41579,0.21356 -0.461285,0.259055 -0.04189,0.04189 -0.01348,0.08245 0.05777,0.08245 0.07422,0 0.04669,-0.03952 0.399901,0.573893 0.247778,0.430304 0.252993,0.441517 0.225157,0.484001 -0.04108,0.0627 -0.03616,0.0981 0.01365,0.0981 0.02318,0 0.137227,-0.05546 0.253428,-0.123246 z m -1.715666,-0.330041 c 0.0056,-0.134349 0.01182,-0.156462 0.065,-0.231893 0.04075,-0.05779 0.05712,-0.09923 0.05335,-0.135026 l -0.0054,-0.05165 -0.186737,0.10856 c -0.102705,0.05971 -0.189452,0.111202 -0.192771,0.11443 -0.0065,0.0064 0.123797,0.236283 0.178335,0.314601 0.05626,0.08079 0.08129,0.04702 0.08825,-0.119027 z m 2.242463,0.02686 0.172087,-0.09742 -0.0645,-0.115998 c -0.113996,-0.205027 -0.146448,-0.249381 -0.182461,-0.249381 -0.03147,0 -0.03433,0.01233 -0.03205,0.137829 0.0027,0.148307 -0.02159,0.219629 -0.105329,0.309221 -0.03876,0.04147 -0.04109,0.0513 -0.0202,0.08488 0.013,0.02089 0.0319,0.0358 0.042,0.03313 0.0101,-0.0027 0.0958,-0.04869 0.19045,-0.10227 z m 0.587422,-0.340149 c 0.119613,-0.06949 0.220244,-0.128938 0.223623,-0.132118 0.0145,-0.01364 -0.715008,-1.254541 -0.733173,-1.24714 -0.01096,0.0045 -0.115954,0.06417 -0.233332,0.132681 -0.176676,0.103122 -0.213414,0.131749 -0.213414,0.166298 0,0.03512 0.009,0.04174 0.0571,0.04174 0.0314,0 0.06847,0.01201 0.08236,0.02667 0.04684,0.04946 0.563027,0.962865 0.563027,0.996291 0,0.01821 -0.008,0.03805 -0.01778,0.0441 -0.0098,0.006 -0.01779,0.03052 -0.01779,0.0544 0,0.06967 0.05267,0.05458 0.289378,-0.08293 z m -0.843381,-0.03938 c 0.02182,-0.02629 0.0079,-0.0565 -0.151703,-0.328873 -0.07001,-0.119484 -0.105345,-0.163863 -0.126929,-0.159419 -0.02421,0.005 -0.02896,0.02379 -0.02494,0.09876 0.0031,0.05789 -0.0054,0.112636 -0.02267,0.14604 -0.02499,0.04834 -0.02499,0.05747 5.2e-5,0.09571 0.017,0.02595 0.0516,0.04615 0.08962,0.05232 0.03406,0.0055 0.09164,0.03454 0.127961,0.06448 0.07472,0.06159 0.08157,0.06355 0.108595,0.03099 z m 1.269291,-0.224871 c 0.123749,-0.108929 0.165042,-0.218535 0.165042,-0.438077 0,-0.178031 -7e-4,-0.180931 -0.08308,-0.346797 -0.138263,-0.278353 -0.311367,-0.423984 -0.552738,-0.465016 -0.09147,-0.01555 -0.128429,-0.01372 -0.208939,0.01033 -0.145096,0.04335 -0.154735,0.05234 -0.117315,0.109451 0.01852,0.02827 0.04135,0.04342 0.0566,0.03757 0.04523,-0.01735 0.112648,0.02834 0.165437,0.112121 0.102113,0.162068 0.460134,0.79396 0.472476,0.8339 0.0082,0.02658 0.0021,0.05691 -0.01737,0.08668 -0.02365,0.0361 -0.02593,0.05473 -0.01075,0.08805 0.01059,0.02325 0.02631,0.04226 0.03491,0.04226 0.0086,0 0.05169,-0.03171 0.09572,-0.07047 z m 0.658058,-0.362866 c 0.188432,-0.111293 0.204721,-0.170401 0.04714,-0.171066 -0.03549,-1.59e-4 -0.07363,-0.01125 -0.08477,-0.02468 -0.01114,-0.01342 -0.06414,-0.191372 -0.117772,-0.395438 -0.09374,-0.356669 -0.100268,-0.373784 -0.168693,-0.442208 l -0.07118,-0.07118 0.03429,0.124267 c 0.115885,0.419999 0.214222,0.836637 0.205123,0.86907 -0.0058,0.02074 -0.02329,0.06268 -0.03883,0.09319 -0.03536,0.06945 -0.0198,0.120607 0.03172,0.104256 0.02023,-0.0064 0.09356,-0.04521 0.162976,-0.08621 z m -2.054102,0.0044 c 0.02515,-0.02515 0.01852,-0.04176 -0.09258,-0.231755 l -0.09093,-0.155506 -0.181535,0.106257 -0.181535,0.106257 0.02883,0.044 c 0.03252,0.04963 0.02802,0.04858 0.118066,0.02767 0.08986,-0.02087 0.199118,0.006 0.286835,0.07049 0.08033,0.05908 0.08502,0.06043 0.112854,0.0326 z m 2.711529,-0.382763 c 0.2826533,-0.162309 0.3146863,-0.188294 0.2814673,-0.228321 -0.01292,-0.01556 -0.03627,-0.02708 -0.05189,-0.0256 -0.01562,0.0015 -0.03742,0.0018 -0.04845,6.5e-4 -0.01624,-0.0016 -0.6280863,-0.638433 -0.8789733,-0.914795 l -0.06172,-0.06798 -0.182973,0.103554 c -0.173668,0.09829 -0.182491,0.106084 -0.173485,0.1533 0.0062,0.03237 0.115199,0.163809 0.312101,0.376269 0.166437,0.179587 0.302613,0.330503 0.302613,0.335368 0,0.0048 -0.04476,0.03411 -0.09947,0.06498 -0.09103,0.05137 -0.09845,0.06019 -0.08748,0.103922 0.01877,0.0748 0.0041,0.07797 0.226131,-0.04887 0.04642,-0.02652 0.05024,-0.02536 0.111021,0.03355 0.07497,0.07266 0.08991,0.111108 0.06282,0.161711 -0.02385,0.04457 -0.01129,0.0882 0.0254,0.0882 0.01438,0 0.132669,-0.06118 0.26288,-0.135947 z m 0.6041383,-0.349964 c 0.166639,-0.09828 0.18192,-0.144115 0.05372,-0.161121 -0.0537,-0.0071 -0.103987,-0.02698 -0.129982,-0.05132 -0.02332,-0.02183 -0.110331,-0.158137 -0.193358,-0.30289 -0.12998,-0.226611 -0.161669,-0.269463 -0.228024,-0.30835 -0.04238,-0.02484 -0.07953,-0.04246 -0.08254,-0.03915 -0.003,0.0033 0.07787,0.150068 0.1797301,0.326134 0.221686,0.383167 0.237583,0.426045 0.193887,0.522945 -0.06018,0.133456 -0.0029,0.137271 0.206568,0.01375 z M 11.191,2.9674138 c 0.06208,-0.03472 0.112863,-0.06691 0.112863,-0.07155 0,-0.0047 -0.05002,-0.09617 -0.111153,-0.203403 l -0.111153,-0.194967 -0.493124,-0.286195 -0.493124,-0.286196 -0.2400643,0.13864 c -0.132035,0.07625 -0.244393,0.149921 -0.249684,0.16371 -0.01625,0.04234 0.02419,0.07202 0.08546,0.06271 0.04873,-0.0074 0.147949,0.04397 0.7058313,0.365467 0.357023,0.205746 0.656366,0.374268 0.665208,0.374494 0.0088,2.11e-4 0.06686,-0.02799 0.128937,-0.06271 z m 0.629048,-0.364643 c 0.122028,-0.06898 0.22807,-0.131605 0.235649,-0.13916 0.0096,-0.0096 -0.666489,-1.21705 -0.705129,-1.259377 -0.0062,-0.0068 -0.426445,0.242122 -0.452053,0.26773 -0.04064,0.04063 -0.01359,0.07952 0.05966,0.08577 l 0.06535,0.0056 0.284807,0.494987 0.284807,0.494987 -0.02237,0.06777 c -0.0209,0.0633 -0.01488,0.107135 0.01468,0.107135 0.007,0 0.112566,-0.05644 0.234595,-0.125423 z m 0.582004,-0.336621 c 0.07092,-0.04155 0.128937,-0.08012 0.128937,-0.08572 0,-0.0056 -0.04447,-0.08872 -0.09882,-0.18471 -0.07196,-0.127083 -0.108216,-0.174531 -0.133383,-0.174531 -0.03117,0 -0.03457,0.01315 -0.03457,0.133954 0,0.146152 -0.02261,0.218347 -0.09543,0.304699 -0.04163,0.04937 -0.0449,0.06191 -0.02663,0.102016 l 0.02083,0.04573 0.05506,-0.03294 c 0.03028,-0.01812 0.113078,-0.06694 0.183994,-0.108489 z M 10.84373,2.0880938 c -0.143566,-0.249709 -0.158639,-0.297269 -0.119242,-0.376243 0.03448,-0.06913 0.03585,-0.115117 0.0037,-0.127425 -0.0239,-0.0092 -0.281282,0.126911 -0.329392,0.174162 -0.03827,0.03758 -0.01078,0.08033 0.05166,0.08033 0.101279,0 0.153617,0.04493 0.257061,0.220702 0.07641,0.129837 0.115018,0.176829 0.173848,0.211619 0.0416,0.02459 0.07816,0.04222 0.08127,0.03916 0.0031,-0.0031 -0.05044,-0.103096 -0.118978,-0.222312 z m 1.274631,-0.199225 c 0.0062,-0.03209 -0.211071,-0.423123 -0.255629,-0.460103 -0.02203,-0.01829 -0.03191,-0.01772 -0.05261,0.0029 -0.02002,0.02003 -0.02161,0.03952 -0.0074,0.09098 0.01396,0.05056 0.01193,0.08022 -0.0089,0.13006 -0.02414,0.05777 -0.02412,0.07009 1.59e-4,0.117041 0.01493,0.02886 0.03496,0.04765 0.04451,0.04174 0.02854,-0.01764 0.132928,0.02518 0.177787,0.07294 0.04586,0.04881 0.09313,0.05084 0.102073,0.0044 z m -0.124482,-0.586934 c 0.0062,-0.03228 -0.173325,-0.35223695 -0.197656,-0.35223695 -0.0082,0 -0.07228,0.03298 -0.142461,0.0733 -0.219029,0.125831 -0.209208,0.117178 -0.187377,0.165091 0.01854,0.04071 0.02515,0.04213 0.155177,0.03346 0.132941,-0.0089 0.137678,-0.0077 0.224726,0.05356 0.09492,0.06685 0.138362,0.07474 0.147591,0.02682 z M 7.5632627,8.4987336 c 0.676421,-0.09907 1.336888,-0.378339 1.871014,-0.791139 0.9720093,-0.751218 1.5494653,-1.9276008 1.5494653,-3.1565438 0,-0.195199 -0.02503,-0.508513 -0.04994,-0.625045 l -0.0123,-0.05758 -0.09933,0.06085 -0.09933,0.06085 0.01291,0.09517 c 0.106711,0.786356 -0.08414,1.696825 -0.501694,2.3933398 -0.5598433,0.933867 -1.4883123,1.579439 -2.5634433,1.782383 -0.288713,0.0545 -0.850759,0.06672 -1.159021,0.02521 -0.664617,-0.0895 -1.214602,-0.318803 -1.832435,-0.763994 -0.03212,-0.02314 -0.04462,-0.02014 -0.128937,0.0309 -0.05135,0.03109 -0.09334,0.0606 -0.09331,0.06558 4.2e-5,0.005 0.07413,0.06393 0.164654,0.131002 0.588186,0.435799 1.290681,0.705103 2.022772,0.775438 0.224952,0.02161 0.680381,0.0085 0.918929,-0.02642 z m -0.252011,-0.276125 c 1.906,-0.163884 3.3707693,-1.76415 3.3688183,-3.6804498 -2.11e-4,-0.218362 -0.02094,-0.472809 -0.04004,-0.491916 -0.0053,-0.0053 -0.25806,0.133173 -0.561606,0.307798 l -0.5519053,0.317501 -5.5e-4,0.06356 c -0.002,0.23216 -0.139585,0.715855 -0.277152,0.974452 -0.25606,0.4813438 -0.648436,0.8716178 -1.110587,1.1046358 -0.647192,0.326316 -1.436418,0.351963 -2.118611,0.06885 -0.09616,-0.03991 -0.185006,-0.06858 -0.197439,-0.06371 -0.01244,0.0049 -0.264457,0.14861 -0.560051,0.319436 l -0.537445,0.310592 0.137295,0.09738 c 0.714762,0.506984 1.586347,0.746075 2.449274,0.671877 z m -0.973699,-0.163906 c -0.08559,-0.01995 -0.155787,-0.04505 -0.155998,-0.05576 -2.12e-4,-0.01072 0.0458,-0.225525 0.102261,-0.477352 0.117424,-0.523794 0.08181,-0.478163 0.324949,-0.416403 0.126512,0.03213 0.151168,0.0442 0.151168,0.07397 0,0.0226 -0.01363,0.03751 -0.03739,0.04091 -0.03342,0.0048 -0.04623,0.04448 -0.120521,0.373474 -0.04572,0.202474 -0.08291,0.375255 -0.08265,0.383958 2.65e-4,0.0087 0.01378,0.02555 0.03004,0.03744 0.03658,0.02675 0.01954,0.08091 -0.02456,0.07808 -0.01743,-0.0011 -0.101708,-0.01836 -0.187295,-0.03831 z m 0.858099,0.0033 c -0.04402,-0.01996 -0.09883,-0.05379 -0.121805,-0.07519 -0.107148,-0.0998 -0.176146,-0.345765 -0.144219,-0.514114 0.03355,-0.176912 0.156988,-0.324304 0.289623,-0.345827 0.05881,-0.0095 0.06532,-0.0067 0.06532,0.02889 0,0.02172 -0.01676,0.05307 -0.03725,0.06966 l -0.03726,0.03017 0.03773,0.301696 c 0.04573,0.365658 0.06102,0.427966 0.10802,0.440257 0.02394,0.0063 0.03547,0.02428 0.03547,0.0554 0,0.04027 -0.0073,0.04608 -0.0578,0.04573 -0.03179,-2.12e-4 -0.09381,-0.01672 -0.137829,-0.03667 z m 0.195628,-0.46091 c -0.0326,-0.264105 -0.05593,-0.483496 -0.05186,-0.487536 0.0095,-0.0094 0.271574,-0.04599 0.329366,-0.04599 0.05322,0 0.07821,0.05086 0.03647,0.07422 -0.01929,0.0108 -0.02924,0.03912 -0.02888,0.08227 7.5e-4,0.09418 0.08041,0.687651 0.09557,0.712179 0.007,0.0113 0.02423,0.02054 0.03833,0.02054 0.04281,0 0.0302,0.06945 -0.01439,0.07929 -0.04042,0.0089 -0.306741,0.0452 -0.331792,0.0452 -0.0074,0 -0.04021,-0.216085 -0.07281,-0.480189 z m -1.360509,0.386715 c -0.03912,-0.0091 -0.100282,-0.0239 -0.135902,-0.03285 l -0.06476,-0.01628 0.01666,-0.07542 c 0.03892,-0.176223 0.05249,-0.211051 0.07998,-0.205469 0.01506,0.003 0.04063,0.04552 0.05682,0.09437 0.02093,0.06316 0.04592,0.09911 0.08654,0.124491 0.0354,0.02212 0.05737,0.0505 0.0578,0.07465 9e-4,0.0513 -0.01233,0.05628 -0.09713,0.03652 z m 2.145667,-0.546286 c -0.181427,-0.209864 -0.305106,-0.338433 -0.328831,-0.34183 -0.02091,-0.003 -0.04054,-0.01863 -0.04361,-0.03475 -0.004,-0.02138 0.04434,-0.05469 0.178989,-0.123145 0.191193,-0.09721 0.266174,-0.108644 0.226521,-0.03455 -0.02061,0.0385 -0.0052,0.08368 0.04194,0.122783 0.02118,0.01757 0.04333,0.01312 0.114793,-0.02309 l 0.08855,-0.04487 0.01154,0.04596 c 0.0063,0.02527 0.0091,0.04801 0.0062,0.05052 -0.0029,0.0025 -0.03444,0.01957 -0.07004,0.03791 l -0.06473,0.03336 0.190474,0.222306 c 0.104761,0.122268 0.195229,0.240557 0.201039,0.262864 0.0093,0.03575 -0.0039,0.04787 -0.11196,0.102261 -0.06739,0.03393 -0.128727,0.06147 -0.136307,0.06118 -0.0076,-2.65e-4 -0.144644,-0.151893 -0.304586,-0.336905 z m -2.145995,0.247973 c -0.01217,-0.01971 0.04004,-0.290406 0.06593,-0.341822 0.02499,-0.04962 0.06391,-0.03614 0.077,0.02667 0.0066,0.03179 0.0237,0.07617 0.03793,0.09862 0.03106,0.04902 0.01723,0.104449 -0.02981,0.119377 -0.01881,0.006 -0.05096,0.03439 -0.07144,0.06315 -0.0392,0.05505 -0.06087,0.0643 -0.07961,0.03399 z m 2.602017,-0.285238 c -0.03296,-0.04368 -0.0599,-0.124221 -0.0948,-0.283336 -0.06517,-0.297155 -0.06592,-0.298833 -0.136218,-0.305587 -0.0364,-0.0035 -0.05869,-0.01529 -0.05869,-0.03106 0,-0.02848 0.179001,-0.141762 0.225702,-0.142838 0.0452,-0.0011 0.05536,0.03003 0.02431,0.07437 -0.03946,0.05633 -0.03544,0.105427 0.03496,0.427302 0.03447,0.157585 0.05999,0.294542 0.05672,0.304349 -0.0032,0.0098 -0.02666,-0.0096 -0.05198,-0.0432 z m -2.639793,-0.132361 c -0.01078,-0.0281 0.02322,-0.236985 0.04407,-0.270724 0.0085,-0.0138 0.05091,-0.01066 0.145316,0.01077 0.121584,0.0276 0.133273,0.0341 0.133273,0.07406 0,0.0384 -0.0098,0.04511 -0.07909,0.05436 -0.06376,0.0085 -0.09181,0.02488 -0.144692,0.08447 -0.07214,0.08129 -0.08363,0.08676 -0.09887,0.04705 z m 3.310443,-0.211649 c -0.123002,-0.05467 -0.184073,-0.179478 -0.144303,-0.294911 l 0.02321,-0.06738 -0.05505,0.03357 c -0.08567,0.05224 -0.161524,0.04357 -0.249522,-0.02854 -0.08795,-0.07207 -0.09898,-0.07504 -0.09898,-0.02667 0,0.06333 -0.06573,0.04361 -0.08892,-0.02667 -0.04868,-0.147518 0.109851,-0.32871 0.248976,-0.284553 0.02097,0.0067 0.08213,0.04794 0.135902,0.09174 0.07297,0.05943 0.110431,0.07831 0.147668,0.0744 0.06479,-0.0068 0.104886,0.02727 0.09472,0.08048 -0.0062,0.03225 0.01112,0.05982 0.07515,0.119932 0.105607,0.09914 0.129684,0.112263 0.197592,0.107689 0.03045,-0.002 0.06453,0.0073 0.07573,0.02082 0.04031,0.04857 -0.203368,0.230898 -0.299925,0.224416 -0.0049,-3.18e-4 -0.0329,-0.01127 -0.06225,-0.02431 z m 0.08003,-0.506854 c -0.219787,-0.191268 -0.337868,-0.282679 -0.355689,-0.275354 -0.0488,0.02006 -0.0786,0.0162 -0.08427,-0.01091 -0.0071,-0.03376 0.275323,-0.3600158 0.303536,-0.3507048 0.01145,0.0038 0.02482,0.03269 0.02971,0.06425 0.0074,0.04753 0.05619,0.09865 0.284416,0.2978368 0.243822,0.212793 0.281245,0.239316 0.325244,0.230516 0.03453,-0.0069 0.05283,-0.0019 0.05989,0.01656 0.01239,0.03229 -0.01585,0.07495 -0.139107,0.210192 l -0.09472,0.103932 z M 10.014489,6.0901298 c -0.09267,-0.03668 -0.1244913,-0.05783 -0.1244913,-0.08279 0,-0.02898 0.01448,-0.03369 0.1067072,-0.03478 0.05869,-7e-4 0.1307161,-0.0069 0.1600601,-0.01382 0.08903,-0.02098 0.107682,0.0058 0.07096,0.101983 -0.03663,0.09593 -0.04292,0.0968 -0.213237,0.02939 z M 9.8391827,5.7635468 c -0.357708,-0.132617 -0.390499,-0.141683 -0.411004,-0.113641 -0.03043,0.04162 -0.08061,0.039 -0.08061,-0.0042 0,-0.0282 0.07628,-0.254786 0.13352,-0.396586 0.02029,-0.05028 0.07665,-0.03867 0.08316,0.01713 0.0061,0.05209 -0.009,0.04537 0.6058533,0.270414 0.114932,0.04206 0.208968,0.08436 0.208968,0.09397 0,0.0096 -0.02105,0.07677 -0.04677,0.149222 -0.03307,0.09314 -0.05521,0.131162 -0.07558,0.129777 -0.01585,-0.0011 -0.203741,-0.06681 -0.4175374,-0.146072 z m 0.5428593,-0.20351 c -0.01304,-0.0044 -0.07556,-0.05919 -0.138933,-0.121634 -0.160518,-0.158164 -0.134198,-0.186288 0.09595,-0.102523 0.07092,0.02581 0.128491,0.05586 0.127944,0.06678 -0.0027,0.05255 -0.06323,0.164801 -0.08496,0.15738 z M 7.3925937,6.9323676 c 0.497708,-0.08459 0.951497,-0.318456 1.306583,-0.673351 0.282081,-0.2819298 0.493337,-0.6293658 0.601619,-0.9894328 0.04447,-0.147851 0.100129,-0.415121 0.100129,-0.480753 0,-0.03305 -0.002,-0.03298 -0.07114,0.0023 -0.05788,0.02953 -0.07114,0.04575 -0.07114,0.087 0,0.08377 -0.08058,0.375015 -0.150787,0.544999 -0.2906,0.703594 -0.897879,1.2041228 -1.663227,1.3708568 -0.113683,0.02477 -0.223932,0.03283 -0.444611,0.03249 -0.323407,-4.76e-4 -0.483287,-0.02572 -0.742339,-0.117146 l -0.146558,-0.05172 -0.0739,0.0377 -0.0739,0.0377 0.06929,0.03098 c 0.160804,0.0719 0.48806,0.161658 0.673961,0.184857 0.150044,0.01873 0.53294,0.0095 0.686014,-0.0165 z m 0.04315,-0.193322 c 0.288359,-0.06055 0.560072,-0.174417 0.818085,-0.34283 0.179581,-0.117218 0.511899,-0.4605838 0.628534,-0.6494298 0.147734,-0.239199 0.272269,-0.560557 0.313539,-0.80908 l 0.01258,-0.07576 -0.317266,0.183504 c -0.174497,0.100927 -0.85608,0.494814 -1.514628,0.875304 -1.012869,0.5852068 -1.192863,0.6950908 -1.168164,0.7131508 0.03903,0.02855 0.28637,0.095 0.462588,0.124289 0.182526,0.03034 0.575974,0.02048 0.764732,-0.01915 z M 3.2581897,5.1260228 c 0.01288,-0.0097 0.01501,-0.04363 0.0062,-0.0992 -0.06881,-0.436147 -0.01469,-1.074971 0.132574,-1.564645 0.405224,-1.347477 1.534988,-2.357286 2.93243,-2.62106894 0.288713,-0.0545 0.850758,-0.06673 1.159021,-0.02522 0.627987,0.08457 1.197084,0.31077594 1.715433,0.68186594 l 0.149765,0.107219 0.09016,-0.0515 c 0.04959,-0.02832 0.09206,-0.05771 0.09438,-0.06531 0.0086,-0.02817 -0.362505,-0.289349 -0.590781,-0.415807 -0.437665,-0.24245494 -0.890634,-0.39551594 -1.39608,-0.47174494 -0.250783,-0.03782 -0.804782,-0.04263 -1.049283,-0.0091 -1.162877,0.159447 -2.178875,0.79019894 -2.815488,1.74791194 -0.323212,0.486237 -0.53159,1.024709 -0.628745,1.624751 -0.0398,0.24582 -0.04471,0.882261 -0.0086,1.115673 l 0.02403,0.155313 0.08268,-0.04722 c 0.04547,-0.02597 0.09149,-0.05384 0.10226,-0.06192 z m 0.667777,-0.383773 0.547964,-0.315674 3.71e-4,-0.06356 c 0.0012,-0.230173 0.139211,-0.715529 0.27695,-0.974452 0.256061,-0.481343 0.648437,-0.871617 1.110588,-1.104635 0.645106,-0.325265 1.440846,-0.351857 2.113878,-0.07064 0.09248,0.03864 0.176078,0.07026 0.185777,0.07026 0.01395,0 0.510344,-0.281891 1.048218,-0.59526 l 0.06664,-0.03883 -0.137778,-0.09773 c -1.363918,-0.96746594 -3.169166,-0.90454294 -4.479946,0.156151 -0.665694,0.538685 -1.127808,1.337271 -1.290203,2.229619 -0.05474,0.300812 -0.05584,1.120421 -0.0015,1.120421 0.0061,0 0.257674,-0.142053 0.559055,-0.315675 z m -0.49152,-0.413155 c -0.01019,-0.01649 0.0044,-0.122356 0.04615,-0.333792 0.01991,-0.100929 0.04606,-0.116555 0.101794,-0.06082 0.03151,0.03151 0.04223,0.03153 0.337131,3.7e-4 l 0.304584,-0.03215 0.118745,0.05328 0.118747,0.05328 -0.01143,0.08344 c -0.0063,0.04589 -0.01736,0.08923 -0.02461,0.0963 -0.0072,0.0071 -0.209242,0.03464 -0.448887,0.06125 -0.27583,0.03062 -0.446022,0.05717 -0.463796,0.07233 -0.03314,0.02827 -0.06342,0.03078 -0.07842,0.0065 z m 0.399944,-0.533867 c -0.154112,-0.08016 -0.178431,-0.08405 -0.222306,-0.03557 -0.0177,0.01957 -0.04406,0.03557 -0.05857,0.03557 -0.02182,0 -0.02433,-0.01994 -0.01456,-0.115376 0.0065,-0.06346 0.01646,-0.12748 0.02215,-0.142275 0.01785,-0.04652 0.05836,-0.02937 0.08581,0.03633 0.02358,0.05644 0.05035,0.07468 0.249221,0.169807 0.122541,0.05862 0.222803,0.110195 0.222803,0.114615 0,0.0044 -0.03401,0.0076 -0.07558,0.0072 -0.05197,-6e-4 -0.117261,-0.02255 -0.208967,-0.07026 z m 0.672544,-0.261452 c -0.0049,-0.04199 -0.04594,-0.07099 -0.325747,-0.230237 -0.313862,-0.178635 -0.369134,-0.202133 -0.391258,-0.166336 -0.01591,0.02574 -0.04403,0.02182 -0.05536,-0.0077 -0.01095,-0.02854 0.150413,-0.330195 0.176627,-0.330195 0.0277,0 0.829143,0.452319 0.829693,0.468261 2.65e-4,0.0081 -0.03702,0.08215 -0.08288,0.164507 -0.08843,0.158801 -0.1403,0.193724 -0.151079,0.101709 z m 0.251969,-0.343392 c -0.0176,-0.01087 -0.02607,-0.04723 -0.02621,-0.112398 -1.58e-4,-0.07623 -0.01034,-0.110583 -0.04882,-0.164668 -0.07381,-0.103734 -0.03735,-0.118689 0.104529,-0.04289 0.06403,0.03421 0.120206,0.06833 0.124837,0.07582 0.0047,0.0075 -0.02235,0.0691 -0.05996,0.136912 -0.05321,0.09594 -0.07415,0.119721 -0.09439,0.107213 z m -0.422102,-0.224604 c -0.01223,-0.0052 -0.02223,-0.02765 -0.02223,-0.04997 0,-0.02232 -0.016,-0.06093 -0.03557,-0.0858 -0.08594,-0.10926 -0.0198,-0.110512 0.164506,-0.0031 0.158145,0.09215 0.176991,0.132331 0.06225,0.132699 -0.04157,1.59e-4 -0.09159,0.0037 -0.111153,0.0079 -0.01957,0.0042 -0.04557,0.0035 -0.0578,-0.0018 z m 0.636233,-0.188712 c 0.0017,-0.03179 0.0023,-0.07036 0.0013,-0.0857 -0.001,-0.01534 -0.07816,-0.118389 -0.171482,-0.228988 -0.09333,-0.110597 -0.165608,-0.205159 -0.160631,-0.210137 0.02494,-0.02494 0.122444,0.04654 0.214914,0.157545 0.154034,0.184917 0.215123,0.23381 0.275547,0.220538 0.09038,-0.01985 0.08408,0.02675 -0.01608,0.11884 -0.111659,0.102671 -0.148118,0.109753 -0.143637,0.0279 z m -1.012256,-0.02958 c -0.02005,-0.0127 -0.01193,-0.03892 0.04263,-0.137557 0.03708,-0.06703 0.06908,-0.124047 0.07112,-0.126712 0.002,-0.0027 0.05681,0.02535 0.121712,0.06225 0.150161,0.08538 0.157495,0.124983 0.02278,0.123035 -0.07782,-0.0011 -0.107295,0.0076 -0.158873,0.04692 -0.07176,0.05473 -0.06634,0.05298 -0.09937,0.03207 z m 0.994032,-0.448316 c -0.294857,-0.107003 -0.455698,-0.156649 -0.497519,-0.153567 -0.105152,0.0078 -0.08608,-0.0399 0.06803,-0.169953 0.07752,-0.06542 0.147841,-0.118961 0.156276,-0.11899 0.0084,-4.3e-5 0.172132,0.05651 0.363772,0.125637 l 0.348436,0.125692 0.100569,0.118899 0.100568,0.118898 -0.06664,0.05754 c -0.03665,0.03164 -0.08264,0.05673 -0.102207,0.05575 -0.01957,-0.001 -0.231643,-0.07294 -0.471289,-0.159904 z m 0.924793,-0.143166 c 0,-0.01145 0.01308,-0.03529 0.02907,-0.05295 0.02716,-0.03001 0.01956,-0.05854 -0.115682,-0.434239 -0.07961,-0.221163 -0.140931,-0.408299 -0.136259,-0.415858 0.0094,-0.01517 0.276989,-0.113421 0.28432,-0.104381 0.0025,0.0031 0.05478,0.145707 0.116121,0.316882 0.189459,0.528664 0.175723,0.497965 0.222807,0.497965 0.05287,0 0.07386,0.0315 0.04189,0.06287 -0.02789,0.02738 -0.364242,0.150528 -0.411147,0.150536 -0.01712,3e-6 -0.03112,-0.0094 -0.03112,-0.02083 z m 2.0427,-0.0052 c -0.02778,-0.02817 0.0081,-0.08064 0.05518,-0.08064 0.02669,0 0.06177,-0.01463 0.07795,-0.03252 0.05663,-0.06257 0.03682,-0.117456 -0.09283,-0.257282 -0.13297,-0.143408 -0.171699,-0.2263 -0.156985,-0.335997 0.01212,-0.09037 0.08527,-0.200596 0.159124,-0.239784 0.05415,-0.02873 0.247071,-0.04489 0.269397,-0.02257 0.02475,0.02475 -0.01384,0.08621 -0.05731,0.09129 -0.052,0.0061 -0.09294,0.06905 -0.07915,0.121768 0.0048,0.0183 0.06351,0.0934 0.130486,0.166879 0.08231,0.0903 0.128172,0.157321 0.141493,0.206795 0.03369,0.125091 -0.0107,0.249106 -0.11862,0.331418 -0.05416,0.04131 -0.08618,0.05068 -0.191202,0.05591 -0.06938,0.0035 -0.131275,0.0011 -0.137548,-0.0053 z m -0.154826,-0.08726 c -0.05133,-0.04288 -0.08417,-0.05762 -0.115203,-0.05168 -0.02388,0.0045 -0.04765,0.0015 -0.05283,-0.0069 -0.01805,-0.02921 0.101374,-0.316414 0.134186,-0.32268 0.0252,-0.0048 0.0312,0.007 0.03155,0.06205 6e-4,0.100104 0.02777,0.20045 0.06949,0.256877 0.0782,0.105766 0.03393,0.146859 -0.06719,0.06238 z m -2.524591,-0.07072 c -0.0323,-0.0117 -0.105854,-0.07221 -0.163461,-0.134463 -0.09561,-0.103323 -0.109537,-0.112226 -0.159815,-0.10217 -0.04172,0.0083 -0.05782,0.0038 -0.06637,-0.01842 -0.0134,-0.03492 0.144593,-0.182411 0.196028,-0.182995 0.02794,-3.18e-4 0.03068,0.0098 0.02067,0.0766 -0.01129,0.07525 -0.0087,0.08039 0.11557,0.231197 0.06991,0.08483 0.124633,0.153626 0.121605,0.152881 -0.0031,-7.5e-4 -0.03193,-0.01093 -0.06423,-0.02263 z m 1.659323,-0.02822 c -0.09163,-0.0223 -0.169157,-0.07178 -0.205241,-0.130955 -0.03131,-0.05135 -0.03473,-0.09117 -0.03478,-0.40601 -5.3e-5,-0.338458 -0.0012,-0.349853 -0.03867,-0.374706 -0.07532,-0.05001 -0.02314,-0.06763 0.200272,-0.06763 0.176717,0 0.214737,0.0048 0.223594,0.02781 0.0065,0.01696 -0.0041,0.03817 -0.02723,0.05436 -0.03664,0.02566 -0.03791,0.03906 -0.03791,0.398865 0,0.353054 0.0018,0.373464 0.03557,0.394528 0.02161,0.0135 0.03557,0.04148 0.03557,0.07129 0,0.04212 -0.0069,0.04882 -0.04891,0.04726 -0.0269,-0.001 -0.07292,-0.0077 -0.102261,-0.01481 z m 0.222306,-0.02566 c 0,-0.03072 0.01479,-0.05194 0.04731,-0.06789 0.02602,-0.01276 0.06403,-0.04577 0.08448,-0.07335 0.03362,-0.04536 0.03771,-0.07873 0.04276,-0.349317 l 0.0056,-0.299172 -0.05588,-0.06364 c -0.03073,-0.035 -0.05078,-0.07188 -0.04456,-0.08195 0.01797,-0.0290799 0.24994,-0.0230299 0.274999,0.0072 0.01703,0.02052 0.01251,0.03115 -0.02317,0.05453 -0.06809,0.04461 -0.08255,0.116065 -0.08255,0.407945 0,0.244149 -0.0038,0.276534 -0.04002,0.347548 -0.04083,0.07991 -0.09747,0.130621 -0.168952,0.151264 -0.03395,0.0098 -0.04001,0.0048 -0.04001,-0.03314 z m -1.596416,-0.31725 c -0.01925,-0.0232 -0.110893,-0.255548 -0.110893,-0.281143 0,-0.0077 0.03753,-0.02678 0.08339,-0.04241 0.09486,-0.03233 0.121766,-0.01619 0.101161,0.06064 -0.0066,0.02446 -0.01275,0.09578 -0.01376,0.158501 -0.0018,0.113418 -0.02251,0.149472 -0.0599,0.104412 z m 2.870968,-0.008 c -0.0065,-0.0065 -0.01185,-0.04279 -0.01185,-0.0806 0,-0.0792 -0.03464,-0.172248 -0.07728,-0.20761 -0.03334,-0.02765 -0.039,-0.08318 -0.01029,-0.100921 0.01053,-0.0065 0.05033,0.01323 0.08845,0.04387 0.05271,0.04236 0.08007,0.053 0.114243,0.04442 0.05789,-0.01453 0.05929,0.02201 0.0063,0.164394 -0.05161,0.138601 -0.07644,0.169543 -0.10954,0.136448 z m -2.236005,-0.294926 c -0.03007,-0.04157 -0.07359,-0.08555 -0.09671,-0.09774 -0.03632,-0.01915 -0.07717,-0.08807 -0.05944,-0.100313 0.01427,-0.0099 0.163788,-0.0635 0.166194,-0.05963 0.0014,0.0023 0.02488,0.06634 0.05205,0.142216 0.07054,0.196987 0.03912,0.255413 -0.0621,0.115467 z m -1.421665,2.905232 c 0,-0.08377 0.08058,-0.375015 0.150788,-0.545 0.291641,-0.706115 0.897976,-1.204842 1.66735,-1.371438 0.106024,-0.02296 0.226425,-0.03199 0.431596,-0.03236 0.319727,-6e-4 0.44247,0.018 0.721724,0.109262 l 0.188191,0.0615 0.06629,-0.03911 0.06629,-0.03912 -0.07246,-0.03244 c -0.269729,-0.12076 -0.632379,-0.194032 -0.959831,-0.193928 -0.64975,2.12e-4 -1.244719,0.245578 -1.700813,0.701427 -0.355203,0.355013 -0.589245,0.800985 -0.673684,1.283718 -0.04076,0.233015 -0.04193,0.228031 0.04342,0.184488 0.05788,-0.02953 0.07114,-0.04575 0.07114,-0.087 z m 1.605732,-0.882276 c 0.949309,-0.548354 1.466232,-0.856596 1.45513,-0.867698 -0.0095,-0.0095 -0.08381,-0.0366 -0.165191,-0.0603 -0.647894,-0.188623 -1.310839,-0.0866 -1.888442,0.290605 -0.181743,0.11869 -0.513712,0.461234 -0.630941,0.651042 -0.148516,0.240464 -0.272227,0.560425 -0.314093,0.81236 l -0.01313,0.07904 0.04216,-0.02729 c 0.02319,-0.015 0.704718,-0.409998 1.51451,-0.877762 z" id="path839"></path></g></svg> 